<?xml version="1.0" standalone="no"?>
<!DOCTYPE svg PUBLIC "-//W3C//DTD SVG 20010904//EN"
 "http://www.w3.org/TR/2001/REC-SVG-20010904/DTD/svg10.dtd">
<svg version="1.0" xmlns="http://www.w3.org/2000/svg"
 width="179.000000pt" height="179.000000pt" viewBox="0 0 179.000000 179.000000"
 preserveAspectRatio="xMidYMid meet">
<metadata>
Created by potrace 1.11, written by Peter Selinger 2001-2013
</metadata>
<g transform="translate(0.000000,179.000000) scale(0.100000,-0.100000)"
fill="#000000" stroke="none">
<path d="M878 1620 c-10 -6 -18 -18 -18 -26 0 -8 -4 -12 -10 -9 -10 6 -21 -27
-24 -70 -2 -39 -78 -63 -125 -39 -39 19 -117 24 -139 8 -11 -7 -22 -10 -26 -7
-3 3 -6 1 -6 -5 0 -7 -6 -12 -14 -12 -31 0 -34 -65 -7 -125 l18 -40 -96 -1
c-194 -1 -275 -32 -288 -109 -9 -53 30 -89 108 -99 79 -10 111 -42 95 -93 -3
-10 -8 -39 -11 -64 -5 -37 -2 -49 16 -68 46 -49 128 -64 195 -36 31 13 36 13
41 -1 3 -8 3 -18 0 -21 -4 -3 -2 -14 4 -24 6 -13 6 -19 0 -19 -14 0 -3 -54 20
-105 53 -114 163 -159 228 -94 24 24 31 39 31 70 0 24 4 38 10 34 6 -3 10 -2
10 4 0 24 27 -2 28 -27 2 -47 5 -62 15 -62 5 0 7 -6 4 -14 -6 -15 35 -84 57
-98 6 -4 7 -8 2 -8 -6 0 3 -13 19 -30 16 -16 33 -30 38 -30 4 0 19 -13 32 -28
32 -38 135 -92 174 -92 17 0 31 -4 31 -8 0 -11 9 -12 97 -16 75 -4 90 8 25 20
-20 4 -58 17 -84 30 -26 13 -53 24 -60 24 -8 0 -40 20 -73 44 -32 25 -63 42
-67 40 -4 -3 -8 -1 -8 4 0 5 -21 32 -47 59 -65 68 -97 106 -99 118 -1 6 -7 24
-14 40 -11 29 -11 42 0 38 23 -7 103 -16 139 -15 40 1 98 28 90 42 -1 3 2 14
8 25 8 15 7 31 -3 60 -21 62 -21 61 64 58 77 -4 188 12 198 29 3 4 10 6 15 3
5 -4 9 -1 9 5 0 6 4 9 9 6 5 -4 23 7 39 24 31 31 35 67 11 96 -16 20 -75 44
-121 50 -77 10 -77 8 -52 129 3 17 7 37 8 45 5 24 -43 78 -77 89 -33 11 -105
10 -123 -2 -6 -3 -22 -8 -37 -11 -26 -4 -26 -4 -20 45 6 52 -19 150 -44 177
-7 7 -13 19 -14 25 0 7 -16 25 -35 41 -39 32 -115 45 -146 26z m120 -89 c17
-17 32 -34 32 -39 0 -4 8 -17 18 -28 27 -30 67 -194 43 -180 -6 4 -11 3 -11
-2 0 -5 -12 -14 -26 -20 -15 -7 -22 -17 -18 -24 4 -6 3 -8 -4 -4 -10 6 -72
-75 -72 -95 0 -15 6 -11 49 30 65 62 213 121 251 101 32 -17 37 -70 11 -118
-14 -26 -14 -69 -1 -77 6 -4 8 -10 5 -14 -4 -8 27 -41 53 -55 7 -4 36 -10 65
-13 29 -3 60 -10 69 -15 17 -8 17 -11 3 -32 -15 -22 -87 -60 -139 -73 -32 -8
-180 -12 -186 -4 -16 20 -60 53 -75 55 -9 1 -21 9 -26 17 -5 8 -9 10 -9 5 0
-5 -7 -3 -15 4 -8 7 -15 9 -15 6 0 -4 -7 0 -16 8 -8 9 -21 13 -27 9 -8 -5 -8
-8 1 -11 14 -4 50 -33 94 -74 16 -16 33 -28 36 -28 9 0 34 -76 37 -112 2 -16
-1 -25 -6 -22 -5 3 -9 1 -9 -4 0 -5 -10 -8 -22 -7 -22 2 -37 6 -84 25 -33 13
-116 5 -154 -15 -44 -23 -59 -43 -60 -78 0 -16 -5 -37 -11 -48 -10 -19 -12
-19 -34 -5 -14 9 -31 16 -39 16 -8 0 -18 5 -22 12 -5 7 -3 8 5 3 10 -5 9 -2 0
13 -7 12 -17 18 -21 16 -5 -3 -8 -2 -6 3 1 4 -6 25 -15 47 -9 21 -17 42 -17
47 0 5 -4 9 -10 9 -5 0 -10 17 -10 38 0 33 7 44 47 80 25 23 42 42 37 42 -5 0
-2 6 6 13 8 7 21 20 29 30 24 30 -13 21 -48 -12 -18 -17 -35 -31 -39 -32 -24
-6 -52 -24 -52 -32 0 -6 -3 -7 -7 -4 -3 4 -17 0 -30 -9 -17 -10 -38 -14 -70
-10 -25 3 -46 6 -47 8 -1 2 -7 10 -14 19 -10 13 -9 23 2 51 11 27 15 82 7 106
-1 1 0 3 1 5 1 1 -4 12 -11 25 -16 29 -48 50 -91 57 -60 10 -109 25 -115 35
-16 26 87 80 180 95 17 3 46 8 65 12 54 10 82 4 115 -26 17 -15 41 -33 55 -40
14 -6 36 -18 49 -26 13 -7 30 -11 38 -8 10 4 1 14 -26 30 -23 13 -41 28 -41
34 0 5 -7 9 -17 9 -9 0 -14 3 -11 6 3 3 -9 31 -28 61 -19 31 -34 65 -34 75 0
35 65 43 132 17 15 -6 57 -9 93 -7 50 3 70 9 89 27 14 13 25 26 24 30 -1 3 4
25 10 48 11 36 19 45 52 52 3 0 20 -12 38 -28z"/>
<path d="M730 1166 c0 -2 7 -7 16 -10 8 -3 12 -2 9 4 -6 10 -25 14 -25 6z"/>
</g>
</svg>
